<svg xmlns="http://www.w3.org/2000/svg" width="31" height="31" viewBox="0 0 31 31" fill="none"><metadata><rdf:RDF xmlns:rdf="http://www.w3.org/1999/02/22-rdf-syntax-ns#" xmlns:dc="http://purl.org/dc/elements/1.1/"><rdf:Description><dc:creator>RealFaviconGenerator</dc:creator><dc:source>https://realfavicongenerator.net</dc:source></rdf:Description></rdf:RDF></metadata><g clip-path="url(#clip0_2305_310)">
<path opacity="0.7" d="M29.1855 23.755C29.1855 25.5465 28.4909 27.2647 27.2545 28.5315C26.0182 29.7983 24.3413 30.51 22.5928 30.51C20.8443 30.51 19.1674 29.7983 17.931 28.5315C16.6946 27.2647 16 25.5465 16 23.755C16 21.9635 16.6946 20.2453 17.931 18.9785C19.1674 17.7117 20.8443 17 22.5928 17C24.3413 17 26.0182 17.7117 27.2545 18.9785C28.4909 20.2453 29.1855 21.9635 29.1855 23.755Z" fill="#A6D96A" stroke="black" stroke-width="2" stroke-miterlimit="10"></path>
<path opacity="0.7" d="M29.1855 8.755C29.1855 10.5465 28.4909 12.2647 27.2545 13.5315C26.0182 14.7983 24.3413 15.51 22.5928 15.51C20.8443 15.51 19.1674 14.7983 17.931 13.5315C16.6946 12.2647 16 10.5465 16 8.755C16 6.96346 16.6946 5.2453 17.931 3.97849C19.1674 2.71169 20.8443 2 22.5928 2C24.3413 2 26.0182 2.71169 27.2545 3.97849C28.4909 5.2453 29.1855 6.96346 29.1855 8.755Z" fill="#F46D43" stroke="black" stroke-width="2" stroke-miterlimit="10"></path>
<g opacity="0.7">
<path d="M8.20861 2L1 14.792H15.4172L8.20861 2Z" fill="#A50026"></path>
<path d="M8.20861 2L1 14.792H15.4172L8.20861 2Z" fill="#A50026"></path>
<path d="M8.20861 2L1 14.792H15.4172L8.20861 2Z" stroke="black" stroke-width="2" stroke-miterlimit="10"></path>
</g>
<path opacity="0.7" d="M8.20861 16L1 28.792H15.4172L8.20861 16Z" fill="#F46D43"></path>
</g><defs>
<clipPath id="clip0_2305_310">
<rect width="31" height="31" fill="white"></rect>
</clipPath>
</defs></svg>